<svg width="24" height="15" viewBox="0 0 24 15" fill="none" xmlns="http://www.w3.org/2000/svg">
<path d="M0 0V1.18918C3.21984 3.55644 9.85539 8.43528 10.3987 8.83792C11.0755 9.33898 11.7437 9.39304 12 9.39304C12.2563 9.39304 12.9249 9.33937 13.6013 8.83873C14.1245 8.45119 20.5363 3.68888 24 1.11581V4.08913e-06L0 0ZM24 2.19811C20.4422 4.8406 14.7233 9.08819 14.2303 9.45286C13.3102 10.1344 12.3638 10.2082 12 10.2082C11.6362 10.2082 10.6898 10.1344 9.76969 9.45206C9.25945 9.07474 3.38112 4.7528 0 2.26671V14.7009H24V2.19811Z" fill="white"/>
</svg>
